<svg width="21" height="25" viewBox="0 0 21 25" fill="none" xmlns="http://www.w3.org/2000/svg">
<path fill-rule="evenodd" clip-rule="evenodd" d="M5.71274 23.9308L6.12392 21.2313L5.20795 21.2092H0.833984L3.87373 1.28807C3.8832 1.22775 3.91382 1.17175 3.95853 1.13191C4.00346 1.09207 4.06072 1.07022 4.12062 1.07022H11.4958C13.9444 1.07022 15.6341 1.59674 16.5162 2.63613C16.9298 3.12373 17.1932 3.6334 17.3207 4.19407C17.4544 4.78251 17.4566 5.48545 17.3262 6.34296L17.3167 6.40533V6.95484L17.7303 7.19705C18.0785 7.38803 18.3554 7.60656 18.5677 7.85674C18.9214 8.27377 19.1502 8.8037 19.2469 9.43175C19.3469 10.0778 19.3139 10.8467 19.1502 11.7172C18.9615 12.7184 18.6565 13.5904 18.2444 14.3038C17.8656 14.9613 17.3828 15.5067 16.8095 15.9292C16.2622 16.3307 15.6121 16.6355 14.8769 16.8306C14.1644 17.0223 13.3522 17.119 12.4613 17.119H11.8874C11.4771 17.119 11.0784 17.2718 10.7655 17.5456C10.4516 17.8252 10.2442 18.2071 10.1805 18.6248L10.1371 18.868L9.41056 23.6262L9.37775 23.8008C9.36894 23.8561 9.35396 23.8837 9.33194 23.9024C9.31234 23.9194 9.28415 23.9308 9.25662 23.9308H5.71274Z" fill="#28356A"/>
<path fill-rule="evenodd" clip-rule="evenodd" d="M18.1215 6.46881C18.0997 6.61427 18.0743 6.76292 18.0461 6.91566C17.0736 12.0771 13.7459 13.8602 9.4962 13.8602H7.33234C6.81257 13.8602 6.37452 14.2501 6.29369 14.78L4.87204 24.1006C4.8194 24.4486 5.07884 24.7621 5.41845 24.7621H9.25636C9.71071 24.7621 10.0968 24.4209 10.1684 23.9576L10.206 23.7562L10.9286 19.0166L10.9751 18.7566C11.0458 18.2918 11.4328 17.9503 11.8871 17.9503H12.4611C16.1794 17.9503 19.0903 16.3901 19.9411 11.8747C20.2963 9.98852 20.1124 8.41351 19.172 7.30583C18.8874 6.97189 18.5344 6.69463 18.1215 6.46881Z" fill="#298FC2"/>
<path fill-rule="evenodd" clip-rule="evenodd" d="M17.1054 6.04916C16.9567 6.00431 16.8034 5.96379 16.6462 5.92714C16.4881 5.89141 16.3262 5.85976 16.1595 5.83199C15.576 5.73456 14.9367 5.68835 14.252 5.68835H8.47133C8.32884 5.68835 8.19361 5.72159 8.0727 5.78169C7.80599 5.91417 7.60799 6.17504 7.55998 6.49441L6.33016 14.545L6.29492 14.7797C6.37575 14.2497 6.81381 13.8598 7.33357 13.8598H9.49743C13.7472 13.8598 17.0748 12.0758 18.0474 6.91531C18.0764 6.76257 18.1009 6.61392 18.1227 6.46846C17.8767 6.33347 17.6102 6.21806 17.3232 6.11972C17.2523 6.09537 17.1792 6.07192 17.1054 6.04916Z" fill="#22284F"/>
<path fill-rule="evenodd" clip-rule="evenodd" d="M7.55923 6.49472C7.60724 6.17535 7.80523 5.91447 8.07194 5.7829C8.19374 5.72258 8.32808 5.68934 8.47058 5.68934H14.2512C14.9359 5.68934 15.5753 5.73578 16.1587 5.83321C16.3254 5.86075 16.4873 5.89262 16.6454 5.92836C16.8027 5.96478 16.956 6.00553 17.1046 6.05015C17.1784 6.07291 17.2515 6.09658 17.3231 6.12003C17.6101 6.21837 17.8768 6.33469 18.1228 6.46877C18.4122 4.56141 18.1204 3.26274 17.1227 2.08678C16.0226 0.791981 14.0374 0.237915 11.4969 0.237915H4.1215C3.60262 0.237915 3.15993 0.627856 3.07977 1.1587L0.00786172 21.2847C-0.0527042 21.6828 0.244399 22.042 0.632902 22.042H5.18614L7.55923 6.49472Z" fill="#28356A"/>
</svg>
