<svg width="70" height="31" viewBox="0 0 70 31" fill="none" xmlns="http://www.w3.org/2000/svg">
<path d="M5.2 0.599998H0.464V23H14.096V18.584H5.2V0.599998ZM24.1863 23.384C28.9223 23.384 32.2823 20.056 32.2823 15.256C32.2823 10.456 28.9223 7.128 24.1863 7.128C19.4503 7.128 16.0903 10.456 16.0903 15.256C16.0903 20.056 19.4503 23.384 24.1863 23.384ZM24.1863 19.384C22.1063 19.384 20.6343 17.816 20.6343 15.256C20.6343 12.696 22.1063 11.16 24.1863 11.16C26.2663 11.16 27.7383 12.696 27.7383 15.256C27.7383 17.816 26.2663 19.384 24.1863 19.384ZM46.3648 9.4H46.2368C45.4688 8.024 43.6448 7.128 41.5968 7.128C37.7248 7.128 34.7168 10.328 34.7168 14.968C34.7168 19.608 37.7248 22.744 41.5968 22.744C43.5808 22.744 45.4368 21.88 46.2048 20.536H46.3008V22.712C46.3008 25.176 44.8928 26.616 42.6208 26.616C40.7968 26.616 39.5488 25.688 38.9728 24.024L34.7808 25.144C35.5807 28.696 38.5888 30.552 42.5248 30.552C47.4528 30.552 50.6208 27.672 50.6208 22.712V7.512H46.5248L46.3648 9.4ZM42.7488 18.744C40.7328 18.744 39.2608 17.272 39.2608 14.968C39.2608 12.664 40.7328 11.16 42.7488 11.16C44.7968 11.16 46.2688 12.664 46.2688 14.968C46.2688 17.272 44.7968 18.744 42.7488 18.744ZM61.905 23.384C66.641 23.384 70.001 20.056 70.001 15.256C70.001 10.456 66.641 7.128 61.905 7.128C57.169 7.128 53.809 10.456 53.809 15.256C53.809 20.056 57.169 23.384 61.905 23.384ZM61.905 19.384C59.825 19.384 58.353 17.816 58.353 15.256C58.353 12.696 59.825 11.16 61.905 11.16C63.985 11.16 65.457 12.696 65.457 15.256C65.457 17.816 63.985 19.384 61.905 19.384Z" fill="#116DFF"/>
</svg>
